<svg xmlns="http://www.w3.org/2000/svg" xmlns:xlink="http://www.w3.org/1999/xlink" style="text-rendering: geometricprecision; cursor: auto;">
    <defs>
        <linearGradient x1="0" y1="0.5" x2="1" y2="0.5" id="linearGradientSkk2f1quj3xq">
            <stop offset="0%" stop-color="#7e7e7e"></stop>
            <stop offset="100%" stop-color="#7e7e7e"></stop>
        </linearGradient>
        <linearGradient x1="0" y1="0.5" x2="1" y2="0.5" id="linearGradientSkk2f1quj4qx">
            <stop offset="40%" stop-color="#004589"></stop>
            <stop offset="60.03%" stop-color="#f07c00"></stop>
            <stop offset="100%" stop-color="#f07c00"></stop>
        </linearGradient>
        <linearGradient x1="0" y1="0.5" x2="1" y2="0.5" id="linearGradientSkk2f1quj4ny">
            <stop offset="40%" stop-color="#f07c00"></stop>
            <stop offset="60%" stop-color="#004589"></stop>
            <stop offset="100%" stop-color="#004589"></stop>
        </linearGradient>
    </defs>
    <!-- <g class="background-part">
        <rect x="0" y="0" width="1309" height="864" fill="rgba(255,255,255,0.25)" style=""></rect>
    </g> -->
    <g class="svg-clip svg-visible" transform="matrix(2.7273,0,0,2.7273,218.6365,121.4547)">
        <rect x="0" y="0" width="89" height="95" fill="none" class="svg-hitbox" style=""></rect><svg width="89.38055513077408" height="95.71147141279538" viewBox="5.347222434612968,2.80152858720464,89.38055513077408,95.71147141279538">
            <g>
                <path d="M77.942,48.226c1.232-1.462,2.379-2.952,3.439-4.443c5.475-7.911,6.736-13.787,3.755-17.686  c-2.666-4.156-8.628-4.987-17.915-2.493c-1.232,0.315-2.436,0.659-3.669,1.089c-0.373-1.261-0.774-2.465-1.175-3.641v-0.029  C59.052,11.995,54.954,7.581,50.023,7.81c-4.901-0.229-9.029,4.185-12.325,13.213c-0.831,2.208-1.519,4.529-2.121,6.995  c-2.437-0.516-4.844-0.86-7.166-1.032c-9.602-0.86-15.306,1.003-17.198,5.561c-2.293,4.385-0.029,9.975,6.765,16.796h0.029  c1.261,1.261,2.637,2.522,4.127,3.755c-1.262,1.49-2.379,2.952-3.44,4.443v0.028c-5.503,7.882-6.765,13.759-3.755,17.686  c2.637,4.156,8.599,4.987,17.915,2.522c1.204-0.344,2.407-0.717,3.64-1.118c0.373,1.261,0.774,2.465,1.204,3.641  c2.322,6.335,5.016,10.348,8.083,12.039v0.028c1.347,0.774,2.752,1.146,4.242,1.146c1.462,0,2.867-0.373,4.242-1.146v-0.028  c2.81-1.548,5.274-5.016,7.453-10.376c0.201-0.544,0.43-1.061,0.63-1.634c0,0,0-0.029,0.029-0.029  c0.773-2.207,1.49-4.529,2.063-6.994c2.494,0.516,4.901,0.86,7.223,1.061c3.899,0.344,7.109,0.229,9.66-0.344  c3.87-0.831,6.392-2.58,7.539-5.246c2.293-4.357,0.029-9.946-6.765-16.768C80.779,50.72,79.404,49.458,77.942,48.226z   M20.614,46.707h0.029c-5.274-5.246-7.28-9.459-6.048-12.583c1.604-2.923,6.105-4.07,13.5-3.439  c2.178,0.201,4.414,0.516,6.736,0.975c-0.631,3.268-1.089,6.736-1.347,10.434c-3.325,2.694-6.278,5.446-8.886,8.255  C23.194,49.143,21.847,47.939,20.614,46.707z M33.341,56.566c-2.063-1.261-3.984-2.58-5.818-3.926  c1.749-1.863,3.64-3.669,5.733-5.475c-0.058,1.147-0.058,2.322-0.058,3.497v0.029C33.198,52.697,33.255,54.646,33.341,56.566z   M31.85,74.167c-7.166,1.92-11.78,1.576-13.844-1.032v-0.029c-1.749-2.867-0.488-7.338,3.754-13.415  c0.975-1.433,2.064-2.866,3.268-4.271c2.637,1.978,5.503,3.869,8.628,5.675c0.372,4.271,1.003,8.227,1.892,11.953  C34.287,73.45,33.083,73.851,31.85,74.167z M62.435,38.021c-1.691-0.889-3.469-1.749-5.274-2.608  c-1.462-0.66-2.896-1.319-4.329-1.921c2.781-1.519,5.503-2.809,8.169-3.898C61.604,32.26,62.09,35.069,62.435,38.021z   M41.195,22.314c2.551-6.965,5.503-10.548,8.828-10.778c3.354,0.229,6.307,3.812,8.829,10.778c0.43,1.175,0.831,2.408,1.204,3.64  c-3.812,1.519-7.71,3.439-11.667,5.79c-3.153-1.175-6.22-2.15-9.144-2.895C39.791,26.556,40.45,24.377,41.195,22.314z   M38.443,32.489c1.92,0.487,3.87,1.089,5.875,1.749c-1.318,0.832-2.637,1.72-3.956,2.637h0.029  c-1.003,0.688-1.949,1.376-2.866,2.064C37.755,36.703,38.07,34.553,38.443,32.489z M37.612,63.303  c1.691,0.889,3.469,1.777,5.332,2.608h-0.029c1.462,0.688,2.895,1.319,4.328,1.92c-2.78,1.52-5.503,2.809-8.198,3.898  C38.443,69.064,37.956,66.255,37.612,63.303z M58.88,78.981c-0.229,0.545-0.43,1.061-0.631,1.577  c-1.748,4.385-3.697,7.223-5.848,8.599v-0.029c-0.773,0.43-1.547,0.66-2.379,0.66c-0.831,0-1.605-0.229-2.35-0.66v0.029  c-2.408-1.52-4.558-4.902-6.478-10.147c-0.459-1.175-0.832-2.379-1.204-3.64c3.812-1.491,7.71-3.411,11.695-5.761  c2.666,1.003,5.274,1.834,7.796,2.522h0.029c0.43,0.114,0.888,0.229,1.318,0.344c-0.545,2.293-1.204,4.472-1.978,6.564L58.88,78.981  z M62.292,64.478c-0.201,1.491-0.43,2.953-0.688,4.356c-0.401-0.085-0.774-0.2-1.147-0.286h0.029  c-1.548-0.43-3.124-0.917-4.729-1.434c1.29-0.86,2.608-1.72,3.927-2.637c0.974-0.688,1.92-1.376,2.866-2.092  C62.463,63.102,62.377,63.79,62.292,64.478z M62.922,57.427c-1.691,1.319-3.497,2.666-5.36,3.984  c-2.121,1.462-4.185,2.838-6.221,4.07c-2.235-0.859-4.528-1.863-6.821-2.923h-0.029c-2.551-1.204-4.988-2.465-7.281-3.727  c-0.201-2.637-0.287-5.331-0.287-8.169c0-2.322,0.058-4.558,0.201-6.707c1.691-1.347,3.468-2.695,5.389-4.013  c2.093-1.49,4.185-2.838,6.249-4.07c2.207,0.86,4.5,1.834,6.821,2.923c2.551,1.176,4.959,2.408,7.281,3.698  c0.172,2.608,0.258,5.331,0.258,8.169C63.123,52.984,63.065,55.22,62.922,57.427z M68.167,27.187  c7.166-1.92,11.81-1.548,13.902,1.061c1.749,2.866,0.487,7.309-3.755,13.415v-0.028c-1.003,1.433-2.092,2.866-3.296,4.299  c-2.608-2.006-5.475-3.898-8.599-5.704c-0.402-4.271-1.032-8.255-1.921-11.924C65.731,27.875,66.963,27.502,68.167,27.187z   M66.706,44.757c2.064,1.261,4.013,2.608,5.819,3.956c-1.749,1.834-3.641,3.669-5.704,5.475c0.029-1.146,0.029-2.322,0.029-3.525  C66.849,48.656,66.82,46.678,66.706,44.757z M85.509,67.201c-0.832,1.576-2.494,2.637-4.959,3.182  c-2.264,0.487-5.13,0.573-8.57,0.287c-2.179-0.201-4.415-0.516-6.736-1.003c0.287-1.519,0.516-3.095,0.745-4.701  c0.229-1.834,0.431-3.727,0.573-5.676c3.325-2.723,6.306-5.475,8.914-8.255c1.405,1.175,2.724,2.379,3.984,3.611  C84.678,59.892,86.713,64.077,85.509,67.201z" fill="url('#linearGradientSkk2f1quj4qx')" stroke="none" style=""></path>
            </g>
        </svg>
    </g>
    <g class="svg-clip svg-visible" transform="matrix(2.7273,0,0,2.7273,314.0909,225.0909)">
        <rect x="0" y="0" width="19" height="19" fill="none" class="svg-hitbox" style=""></rect><svg width="19.287" height="19.287" viewBox="40.38,41.019,19.287,19.287">
            <g>
                <path d="M50.023,46.019c-1.261,0-2.379,0.459-3.267,1.376c-0.917,0.888-1.376,2.006-1.376,3.268c0,1.29,0.459,2.379,1.376,3.296  c0.888,0.888,2.006,1.347,3.267,1.347c1.29,0,2.379-0.459,3.297-1.347c0.889-0.917,1.347-2.007,1.347-3.296  c0-1.261-0.458-2.379-1.347-3.268C52.402,46.478,51.313,46.019,50.023,46.019z" fill="url('#linearGradientSkk2f1quj4ny')" stroke="none" style=""></path>
            </g>
        </svg>
    </g>
    <g class="svg-clip svg-visible" transform="matrix(11.5781,0,0,4.1956,87.095,45.22)">
        <rect x="0" y="0" width="100" height="100" fill="none" class="svg-hitbox" style=""></rect>
        <svg width="100" height="100" viewBox="0,0.6460000000000008,100,100" class="thumb">
            <g>
                <path d="M50,95.646c24.854,0,45-20.147,45-45s-20.146-45-45-45s-45,20.147-45,45S25.146,95.646,50,95.646z M50,6.646  c24.262,0,44,19.738,44,44s-19.738,44-44,44s-44-19.738-44-44S25.738,6.646,50,6.646z" fill="url('#linearGradientSkk2f1quj3xq')" stroke="none" style=""></path>
            </g>
        </svg>
    </g>
    <g class="svg-text svg-visible" transform="matrix(1.581,0,0,1.581,800,156)" style="pointer-events: fill;">
        <path fill="none" style="" d="M-212.75,115.80000000000001 C-20,114.80000000000001 20,114.80000000000001 212.75,115.80000000000001"></path>
        <path d="M-190.55-11.2L-190.55-11.2L-190.55-25.4L-207.55-57.7L-212.25-58L-212.25-66.5L-187.85-66.5L-187.85-58.4L-190.85-58.1Q-192.45-58 -192.9-56.9Q-193.35-55.8 -192.55-54.2L-192.55-54.2L-184.05-36.8L-183.65-36.8L-172.75-57.6L-177.75-58L-177.75-66.5L-156.25-66.5L-156.25-58.4L-159.25-58.1Q-161.15-57.9 -162.65-55.1L-162.65-55.1L-178.35-25.4L-178.35-8.8L-170.55-8.5L-170.55 0L-198.75 0L-198.75-8.1L-193.45-8.4Q-190.55-8.6 -190.55-11.2ZM-107.15-55.9L-107.15-55.9Q-108.25-57.8 -115.35-57.8L-115.35-57.8Q-124.65-57.8 -129.45-51.5Q-134.25-45.2 -134.25-33.3L-134.25-33.3Q-134.25-8.6 -115.75-8.6L-115.75-8.6Q-115.45-8.6 -113.1-8.6Q-110.75-8.6 -108.65-9.25Q-106.55-9.9 -106.15-10.6Q-105.75-11.3 -105.75-12.8L-105.75-12.8L-105.75-20.8L-95.55-20.1L-95.55-2.8Q-103.35 1.3 -115.35 1.3L-115.35 1.3Q-130.65 1.3 -138.7-7.3Q-146.75-15.9 -146.75-32.9L-146.75-32.9Q-146.75-42.3 -144.05-49.3Q-141.35-56.3 -136.75-60.2L-136.75-60.2Q-127.75-67.7 -115.35-67.7L-115.35-67.7Q-105.35-67.7 -96.55-63.6L-96.55-63.6L-96.55-46.6L-106.75-45.9L-106.75-53.7Q-106.75-55.2 -107.15-55.9ZM-59.249999999999986-7.3L-59.249999999999986-7.3Q-48.34999999999998-7.3 -48.34999999999998-24.9L-48.34999999999998-24.9Q-48.34999999999998-33.8 -50.79999999999998-38.4Q-53.249999999999986-43 -58.999999999999986-43Q-64.74999999999999-43 -67.44999999999999-38.6Q-70.14999999999998-34.2 -70.14999999999998-26.6L-70.14999999999998-26.6Q-70.14999999999998-12.5 -64.94999999999999-8.9L-64.94999999999999-8.9Q-62.649999999999984-7.3 -59.249999999999986-7.3ZM-82.24999999999999-25.2L-82.24999999999999-25.2Q-82.24999999999999-32.6 -80.04999999999998-38.05Q-77.84999999999998-43.5 -74.14999999999998-46.4L-74.14999999999998-46.4Q-67.04999999999998-51.8 -58.44999999999998-51.8L-58.44999999999998-51.8Q-52.44999999999998-51.8 -48.29999999999998-49.85Q-44.149999999999984-47.9 -41.79999999999998-45.35Q-39.44999999999998-42.8 -37.79999999999998-37.95Q-36.149999999999984-33.1 -36.149999999999984-26.5L-36.149999999999984-26.5Q-36.149999999999984-12.7 -42.84999999999998-5.6Q-49.54999999999998 1.5 -59.999999999999986 1.5Q-70.44999999999999 1.5 -76.34999999999998-5.25Q-82.24999999999999-12 -82.24999999999999-25.2ZM-20.849999999999987-42L-25.04999999999999-42.3L-25.04999999999999-50.3L-8.149999999999988-50.3L-8.149999999999988-43.8Q-5.54999999999999-47.5 -1.2499999999999893-49.65Q 3.0500000000000114-51.8  8.050000000000008-51.8L 8.050000000000008-51.8Q 15.65000000000001-51.8  19.800000000000008-47.45Q 23.950000000000014-43.1  23.950000000000014-34.4L 23.950000000000014-34.4L 23.950000000000014-8.3L 29.65000000000001-8L 29.65000000000001 0L 5.850000000000012 0L 5.850000000000012-7.6L 9.15000000000001-7.9Q 10.65000000000001-8.1  11.350000000000012-8.75Q 12.050000000000008-9.4  12.050000000000008-11.2L 12.050000000000008-11.2L 12.050000000000008-31.8Q 12.050000000000008-37.3  10.350000000000012-39.95Q 8.65000000000001-42.6  3.9000000000000092-42.6Q-0.8499999999999908-42.6 -3.649999999999988-39.6Q-6.449999999999989-36.6 -6.449999999999989-32.5L-6.449999999999989-32.5L-6.449999999999989-8.3L-0.7499999999999893-8L-0.7499999999999893 0L-24.54999999999999 0L-24.54999999999999-7.6L-21.24999999999999-7.9Q-19.74999999999999-8.1 -19.04999999999999-8.75Q-18.349999999999987-9.4 -18.349999999999987-11.2L-18.349999999999987-11.2L-18.349999999999987-38.9Q-18.349999999999987-41.9 -20.849999999999987-42L-20.849999999999987-42ZM 47.65000000000003-60.9L 47.65000000000003-60.9L 54.15000000000003-60.9L 54.15000000000003-50.3L 67.45000000000003-50.3L 66.45000000000003-41.9L 54.15000000000003-41.9L 54.15000000000003-15.6Q 54.15000000000003-11.2  55.75000000000003-9.45Q 57.35000000000003-7.7  60.70000000000003-7.7Q 64.05000000000003-7.7  67.45000000000003-9.8L 67.45000000000003-9.8L 70.45000000000003-2.1Q 65.45000000000003 1.4  57.75000000000003 1.4L 57.75000000000003 1.4Q 53.25000000000003 1.4  50.15000000000003 0.25Q 47.050000000000026-0.9  45.550000000000026-2.3Q 44.050000000000026-3.7  43.25000000000003-6.4Q 42.45000000000003-9.1  42.35000000000003-10.65Q 42.25000000000003-12.2  42.25000000000003-15.2L 42.25000000000003-15.2L 42.25000000000003-41.9L 35.15000000000003-41.9L 36.15000000000003-49.2Q 40.85000000000003-49.6  43.25000000000003-52.55Q 45.65000000000003-55.5  47.65000000000003-60.9ZM 85.45000000000002-11.2L 85.45000000000002-11.2L 85.45000000000002-38.9Q 85.45000000000002-40.5  84.90000000000002-41.15Q 84.35000000000002-41.8  82.95000000000002-41.9L 82.95000000000002-41.9L 78.75000000000001-42.2L 78.75000000000001-50.3L 95.65000000000002-50.3L 95.65000000000002-42.8Q 97.45000000000002-46.7  101.25000000000001-49.25Q 105.05000000000001-51.8  110.00000000000001-51.8Q 114.95000000000002-51.8  119.45000000000002-49.6L 119.45000000000002-49.6L 119.45000000000002-34.7L 110.15000000000002-34L 110.15000000000002-38.6Q 110.15000000000002-40.6  109.15000000000002-41.1L 109.15000000000002-41.1Q 108.05000000000001-41.6  106.45000000000002-41.6L 106.45000000000002-41.6Q 102.45000000000002-41.6  99.90000000000002-38.75Q 97.35000000000002-35.9  97.35000000000002-31.5L 97.35000000000002-31.5L 97.35000000000002-8.3L 106.05000000000001-7.9L 106.05000000000001 0L 79.25000000000001 0L 79.25000000000001-7.6L 82.55000000000001-7.9Q 84.05000000000001-8.1  84.75000000000001-8.75Q 85.45000000000002-9.4  85.45000000000002-11.2ZM 151.45000000000005-7.3L 151.45000000000005-7.3Q 162.35000000000002-7.3  162.35000000000002-24.9L 162.35000000000002-24.9Q 162.35000000000002-33.8  159.90000000000003-38.4Q 157.45000000000005-43  151.70000000000005-43Q 145.95000000000005-43  143.25000000000003-38.6Q 140.55000000000004-34.2  140.55000000000004-26.6L 140.55000000000004-26.6Q 140.55000000000004-12.5  145.75000000000003-8.9L 145.75000000000003-8.9Q 148.05000000000004-7.3  151.45000000000005-7.3ZM 128.45000000000005-25.2L 128.45000000000005-25.2Q 128.45000000000005-32.6  130.65000000000003-38.05Q 132.85000000000002-43.5  136.55000000000004-46.4L 136.55000000000004-46.4Q 143.65000000000003-51.8  152.25000000000003-51.8L 152.25000000000003-51.8Q 158.25000000000003-51.8  162.40000000000003-49.85Q 166.55000000000004-47.9  168.90000000000003-45.35Q 171.25000000000003-42.8  172.90000000000003-37.95Q 174.55000000000004-33.1  174.55000000000004-26.5L 174.55000000000004-26.5Q 174.55000000000004-12.7  167.85000000000002-5.6Q 161.15000000000003 1.5  150.70000000000005 1.5Q 140.25000000000003 1.5  134.35000000000002-5.25Q 128.45000000000005-12  128.45000000000005-25.2ZM 186.25000000000009-71.3L 204.15000000000006-71.3L 204.15000000000006-8.3L 209.85000000000008-8L 209.85000000000008 0L 186.05000000000007 0L 186.05000000000007-7.6L 189.35000000000008-7.9Q 192.25000000000009-8.2  192.25000000000009-11.1L 192.25000000000009-11.1L 192.25000000000009-60.4Q 192.25000000000009-62.6  189.75000000000009-62.8L 189.75000000000009-62.8L 186.25000000000009-63L 186.25000000000009-71.3Z" data-textpath="YControl" data-text-anchor="middle" data-font-size="100" data-letterspacing="5" data-side="left" data-offset="0" data-dx="0" data-dy="101.85000000000001" data-href="" data-font="Bree Serif" data-font-src="/Content/clientfonts/breeserif.woff" data-font-scale="contain" transform="translate(0,101.85000000000001)" data-xmlspace="preserve" fill="url('#linearGradientSkk2f1quj3xq')"></path>
        <rect x="0" y="0" width="0" height="0"></rect>
    </g>
    <g class="svg-clip svg-visible" transform="matrix(4.2929,0,0,4.1956,486.8539,439.22)">
        <rect x="0" y="0" width="100" height="100" fill="none" class="svg-hitbox" style=""></rect>
        <svg width="100" height="100" viewBox="0,0.6460000000000008,100,100" class="thumb">
            <g>
                <path d="M50,95.646c24.854,0,45-20.147,45-45s-20.146-45-45-45s-45,20.147-45,45S25.146,95.646,50,95.646z M50,6.646  c24.262,0,44,19.738,44,44s-19.738,44-44,44s-44-19.738-44-44S25.738,6.646,50,6.646z" fill="url('#linearGradientSkk2f1quj3xq')" stroke="none" style=""></path>
            </g>
        </svg>
    </g>
    <g class="svg-clip svg-visible" transform="matrix(2.4103,0,0,2.4103,679.1019,549.1019)">
        <rect x="0" y="0" width="19" height="19" fill="none" class="svg-hitbox" style=""></rect>
        <svg width="19.287" height="19.287" viewBox="40.38,41.019,19.287,19.287">
            <g>
                <path d="M50.023,46.019c-1.261,0-2.379,0.459-3.267,1.376c-0.917,0.888-1.376,2.006-1.376,3.268c0,1.29,0.459,2.379,1.376,3.296  c0.888,0.888,2.006,1.347,3.267,1.347c1.29,0,2.379-0.459,3.297-1.347c0.889-0.917,1.347-2.007,1.347-3.296  c0-1.261-0.458-2.379-1.347-3.268C52.402,46.478,51.313,46.019,50.023,46.019z" fill="url('#linearGradientSkk2f1quj4ny')" stroke="none" style=""></path>
            </g>
        </svg>
    </g>
    <g class="svg-clip svg-visible" transform="matrix(2.4103,0,0,2.4103,594.7406,457.5096)">
        <rect x="0" y="0" width="89" height="95" fill="none" class="svg-hitbox" style=""></rect>
        <svg width="89.38055513077408" height="95.71147141279538" viewBox="5.347222434612968,2.80152858720464,89.38055513077408,95.71147141279538">
            <g>
                <path d="M77.942,48.226c1.232-1.462,2.379-2.952,3.439-4.443c5.475-7.911,6.736-13.787,3.755-17.686  c-2.666-4.156-8.628-4.987-17.915-2.493c-1.232,0.315-2.436,0.659-3.669,1.089c-0.373-1.261-0.774-2.465-1.175-3.641v-0.029  C59.052,11.995,54.954,7.581,50.023,7.81c-4.901-0.229-9.029,4.185-12.325,13.213c-0.831,2.208-1.519,4.529-2.121,6.995  c-2.437-0.516-4.844-0.86-7.166-1.032c-9.602-0.86-15.306,1.003-17.198,5.561c-2.293,4.385-0.029,9.975,6.765,16.796h0.029  c1.261,1.261,2.637,2.522,4.127,3.755c-1.262,1.49-2.379,2.952-3.44,4.443v0.028c-5.503,7.882-6.765,13.759-3.755,17.686  c2.637,4.156,8.599,4.987,17.915,2.522c1.204-0.344,2.407-0.717,3.64-1.118c0.373,1.261,0.774,2.465,1.204,3.641  c2.322,6.335,5.016,10.348,8.083,12.039v0.028c1.347,0.774,2.752,1.146,4.242,1.146c1.462,0,2.867-0.373,4.242-1.146v-0.028  c2.81-1.548,5.274-5.016,7.453-10.376c0.201-0.544,0.43-1.061,0.63-1.634c0,0,0-0.029,0.029-0.029  c0.773-2.207,1.49-4.529,2.063-6.994c2.494,0.516,4.901,0.86,7.223,1.061c3.899,0.344,7.109,0.229,9.66-0.344  c3.87-0.831,6.392-2.58,7.539-5.246c2.293-4.357,0.029-9.946-6.765-16.768C80.779,50.72,79.404,49.458,77.942,48.226z   M20.614,46.707h0.029c-5.274-5.246-7.28-9.459-6.048-12.583c1.604-2.923,6.105-4.07,13.5-3.439  c2.178,0.201,4.414,0.516,6.736,0.975c-0.631,3.268-1.089,6.736-1.347,10.434c-3.325,2.694-6.278,5.446-8.886,8.255  C23.194,49.143,21.847,47.939,20.614,46.707z M33.341,56.566c-2.063-1.261-3.984-2.58-5.818-3.926  c1.749-1.863,3.64-3.669,5.733-5.475c-0.058,1.147-0.058,2.322-0.058,3.497v0.029C33.198,52.697,33.255,54.646,33.341,56.566z   M31.85,74.167c-7.166,1.92-11.78,1.576-13.844-1.032v-0.029c-1.749-2.867-0.488-7.338,3.754-13.415  c0.975-1.433,2.064-2.866,3.268-4.271c2.637,1.978,5.503,3.869,8.628,5.675c0.372,4.271,1.003,8.227,1.892,11.953  C34.287,73.45,33.083,73.851,31.85,74.167z M62.435,38.021c-1.691-0.889-3.469-1.749-5.274-2.608  c-1.462-0.66-2.896-1.319-4.329-1.921c2.781-1.519,5.503-2.809,8.169-3.898C61.604,32.26,62.09,35.069,62.435,38.021z   M41.195,22.314c2.551-6.965,5.503-10.548,8.828-10.778c3.354,0.229,6.307,3.812,8.829,10.778c0.43,1.175,0.831,2.408,1.204,3.64  c-3.812,1.519-7.71,3.439-11.667,5.79c-3.153-1.175-6.22-2.15-9.144-2.895C39.791,26.556,40.45,24.377,41.195,22.314z   M38.443,32.489c1.92,0.487,3.87,1.089,5.875,1.749c-1.318,0.832-2.637,1.72-3.956,2.637h0.029  c-1.003,0.688-1.949,1.376-2.866,2.064C37.755,36.703,38.07,34.553,38.443,32.489z M37.612,63.303  c1.691,0.889,3.469,1.777,5.332,2.608h-0.029c1.462,0.688,2.895,1.319,4.328,1.92c-2.78,1.52-5.503,2.809-8.198,3.898  C38.443,69.064,37.956,66.255,37.612,63.303z M58.88,78.981c-0.229,0.545-0.43,1.061-0.631,1.577  c-1.748,4.385-3.697,7.223-5.848,8.599v-0.029c-0.773,0.43-1.547,0.66-2.379,0.66c-0.831,0-1.605-0.229-2.35-0.66v0.029  c-2.408-1.52-4.558-4.902-6.478-10.147c-0.459-1.175-0.832-2.379-1.204-3.64c3.812-1.491,7.71-3.411,11.695-5.761  c2.666,1.003,5.274,1.834,7.796,2.522h0.029c0.43,0.114,0.888,0.229,1.318,0.344c-0.545,2.293-1.204,4.472-1.978,6.564L58.88,78.981  z M62.292,64.478c-0.201,1.491-0.43,2.953-0.688,4.356c-0.401-0.085-0.774-0.2-1.147-0.286h0.029  c-1.548-0.43-3.124-0.917-4.729-1.434c1.29-0.86,2.608-1.72,3.927-2.637c0.974-0.688,1.92-1.376,2.866-2.092  C62.463,63.102,62.377,63.79,62.292,64.478z M62.922,57.427c-1.691,1.319-3.497,2.666-5.36,3.984  c-2.121,1.462-4.185,2.838-6.221,4.07c-2.235-0.859-4.528-1.863-6.821-2.923h-0.029c-2.551-1.204-4.988-2.465-7.281-3.727  c-0.201-2.637-0.287-5.331-0.287-8.169c0-2.322,0.058-4.558,0.201-6.707c1.691-1.347,3.468-2.695,5.389-4.013  c2.093-1.49,4.185-2.838,6.249-4.07c2.207,0.86,4.5,1.834,6.821,2.923c2.551,1.176,4.959,2.408,7.281,3.698  c0.172,2.608,0.258,5.331,0.258,8.169C63.123,52.984,63.065,55.22,62.922,57.427z M68.167,27.187  c7.166-1.92,11.81-1.548,13.902,1.061c1.749,2.866,0.487,7.309-3.755,13.415v-0.028c-1.003,1.433-2.092,2.866-3.296,4.299  c-2.608-2.006-5.475-3.898-8.599-5.704c-0.402-4.271-1.032-8.255-1.921-11.924C65.731,27.875,66.963,27.502,68.167,27.187z   M66.706,44.757c2.064,1.261,4.013,2.608,5.819,3.956c-1.749,1.834-3.641,3.669-5.704,5.475c0.029-1.146,0.029-2.322,0.029-3.525  C66.849,48.656,66.82,46.678,66.706,44.757z M85.509,67.201c-0.832,1.576-2.494,2.637-4.959,3.182  c-2.264,0.487-5.13,0.573-8.57,0.287c-2.179-0.201-4.415-0.516-6.736-1.003c0.287-1.519,0.516-3.095,0.745-4.701  c0.229-1.834,0.431-3.727,0.573-5.676c3.325-2.723,6.306-5.475,8.914-8.255c1.405,1.175,2.724,2.379,3.984,3.611  C84.678,59.892,86.713,64.077,85.509,67.201z" fill="url('#linearGradientSkk2f1quj4qx')" stroke="none" style=""></path>
            </g>
        </svg>
    </g>
    <g class="svg-text svg-visible" transform="matrix(1.6203,0,0,1.5972,705,635)" style="pointer-events: fill;">
        <path fill="none" style="" d="M-61.1,115.80000000000001 C-20,114.80000000000001 20,114.80000000000001 61.1,115.80000000000001"></path>
        <path d="M-38.900000000000006-11.2L-38.900000000000006-11.2L-38.900000000000006-25.4L-55.9-57.7L-60.6-58L-60.6-66.5L-36.2-66.5L-36.2-58.4L-39.2-58.1Q-40.8-58 -41.25-56.9Q-41.7-55.8 -40.900000000000006-54.2L-40.900000000000006-54.2L-32.400000000000006-36.8L-32-36.8L-21.1-57.6L-26.1-58L-26.1-66.5L-4.600000000000001-66.5L-4.600000000000001-58.4L-7.600000000000001-58.1Q-9.5-57.9 -11-55.1L-11-55.1L-26.700000000000003-25.4L-26.700000000000003-8.8L-18.9-8.5L-18.9 0L-47.1 0L-47.1-8.1L-41.8-8.4Q-38.900000000000006-8.6 -38.900000000000006-11.2ZM 44.49999999999999-55.9L 44.49999999999999-55.9Q 43.39999999999999-57.8  36.29999999999999-57.8L 36.29999999999999-57.8Q 26.999999999999993-57.8  22.199999999999992-51.5Q 17.39999999999999-45.2  17.39999999999999-33.3L 17.39999999999999-33.3Q 17.39999999999999-8.6  35.89999999999999-8.6L 35.89999999999999-8.6Q 36.19999999999999-8.6  38.54999999999999-8.6Q 40.89999999999999-8.6  42.99999999999999-9.25Q 45.099999999999994-9.9  45.49999999999999-10.6Q 45.89999999999999-11.3  45.89999999999999-12.8L 45.89999999999999-12.8L 45.89999999999999-20.8L 56.099999999999994-20.1L 56.099999999999994-2.8Q 48.29999999999999 1.3  36.29999999999999 1.3L 36.29999999999999 1.3Q 20.999999999999993 1.3  12.949999999999992-7.3Q 4.8999999999999915-15.9  4.8999999999999915-32.9L 4.8999999999999915-32.9Q 4.8999999999999915-42.3  7.599999999999992-49.3Q 10.299999999999992-56.3  14.899999999999991-60.2L 14.899999999999991-60.2Q 23.89999999999999-67.7  36.29999999999999-67.7L 36.29999999999999-67.7Q 46.29999999999999-67.7  55.099999999999994-63.6L 55.099999999999994-63.6L 55.099999999999994-46.6L 44.89999999999999-45.9L 44.89999999999999-53.7Q 44.89999999999999-55.2  44.49999999999999-55.9Z" data-textpath="YC" data-text-anchor="middle" data-font-size="100" data-letterspacing="5" data-side="left" data-offset="0" data-dx="0" data-dy="101.85000000000001" data-href="" data-font="Bree Serif" data-font-src="/Content/clientfonts/breeserif.woff" data-font-scale="contain" transform="translate(0,101.85000000000001)" data-xmlspace="preserve" fill="url('#linearGradientSkk2f1quj3xq')"></path>
        <rect x="0" y="0" width="0" height="0"></rect>
    </g>
</svg>